<svg xmlns="http://www.w3.org/2000/svg" version="1.1" xmlns:xlink="http://www.w3.org/1999/xlink" xmlns:svgjs="http://svgjs.dev/svgjs" width="1500" height="280" viewBox="0 0 1500 280"><g transform="matrix(1,0,0,1,-0.8886507711270042,-0.7212688101584774)"><svg viewBox="0 0 396 74" data-background-color="#ffffff" preserveAspectRatio="xMidYMid meet" height="280" width="1500" xmlns="http://www.w3.org/2000/svg" xmlns:xlink="http://www.w3.org/1999/xlink"><g id="tight-bounds" transform="matrix(1,0,0,1,0.24000000000003752,0.19062104268473945)"><svg viewBox="0 0 395.5199999999999 73.61875791463052" height="73.61875791463052" width="395.5199999999999"><g><svg viewBox="0 0 483.60079296831964 90.01337405152225" height="73.61875791463052" width="395.5199999999999"><g transform="matrix(1,0,0,1,88.08079296831963,27.815439116761457)"><svg viewBox="0 0 395.52 34.382495817999335" height="34.382495817999335" width="395.52"><g id="textblocktransform"><svg viewBox="0 0 395.52 34.382495817999335" height="34.382495817999335" width="395.52" id="textblock"><g><svg viewBox="0 0 395.52 34.382495817999335" height="34.382495817999335" width="395.52"><g transform="matrix(1,0,0,1,0,0)"><svg width="395.52" viewBox="3.78 -33.8 448.3 38.98" height="34.382495817999335" data-palette-color="#0e2eff"><path d="M15.65-10.63L6.48-10.63 6.48-14.08 15.55-14.08Q18.82-14.08 20.3-15.71 21.78-17.35 21.78-20.23L21.78-20.23 21.78-22.4Q21.78-25.33 20.31-26.93 18.85-28.53 15.6-28.53L15.6-28.53 6.45-28.53 6.45-31.95 15.68-31.95Q21.03-31.95 23.46-29.44 25.9-26.93 25.9-22.53L25.9-22.53 25.9-20.13Q25.9-15.68 23.44-13.15 20.98-10.63 15.65-10.63L15.65-10.63ZM7.88 0L3.78 0 3.78-31.95 7.85-31.95 7.85-13.05 7.88-11.2 7.88 0ZM40.65 0.63L40.65 0.63Q35.4 0.63 32.69-2.21 29.97-5.05 29.97-10.38L29.97-10.38 29.97-14.1Q29.97-19.4 32.7-22.23 35.42-25.05 40.65-25.05L40.65-25.05Q45.9-25.05 48.61-22.23 51.32-19.4 51.32-14.1L51.32-14.1 51.32-10.38Q51.32-5.05 48.61-2.21 45.9 0.63 40.65 0.63ZM40.65-2.68L40.65-2.68Q43.9-2.68 45.59-4.6 47.27-6.53 47.27-10.15L47.27-10.15 47.27-14.33Q47.27-17.93 45.59-19.84 43.9-21.75 40.65-21.75L40.65-21.75Q37.42-21.75 35.72-19.84 34.02-17.93 34.02-14.33L34.02-14.33 34.02-10.15Q34.02-6.53 35.72-4.6 37.42-2.68 40.65-2.68ZM60.8-14.93L60.8-14.93 59.87-18.05 60.87-18.1Q61.67-21.2 63.62-22.99 65.57-24.78 68.8-24.78L68.8-24.78Q69.59-24.78 70.23-24.65 70.87-24.53 71.37-24.35L71.37-24.35 71.62-20.43Q71-20.63 70.23-20.75 69.47-20.88 68.55-20.88L68.55-20.88Q65.8-20.88 63.76-19.35 61.72-17.82 60.8-14.93ZM61 0L56.95 0 56.95-24.4 60.9-24.4 60.7-17.2 61-16.9 61 0ZM85.37 0.5L85.37 0.5Q82.54 0.5 80.82-0.35 79.09-1.2 78.32-2.93 77.54-4.65 77.54-7.23L77.54-7.23 77.54-22.63 81.54-22.63 81.54-7.7Q81.54-5.3 82.64-4.16 83.74-3.03 86.34-3.03L86.34-3.03Q87.82-3.03 89.18-3.35 90.54-3.68 91.74-4.28L91.74-4.28 91.37-0.8Q90.19-0.2 88.62 0.15 87.04 0.5 85.37 0.5ZM91.12-20.8L73.54-20.8 73.54-24.05 91.49-24.05 91.12-20.8ZM81.44-23.65L77.57-23.65 77.54-30.5 81.62-31.03 81.44-23.65ZM104.52-33.8L104.52-33.8Q106.39-33.8 107.88-33.46 109.37-33.13 110.62-32.63L110.62-32.63 111.02-29.45Q109.79-29.9 108.55-30.16 107.32-30.43 105.77-30.43L105.77-30.43Q103.89-30.43 102.75-29.94 101.62-29.45 101.13-28.56 100.64-27.68 100.64-26.43L100.64-26.43 100.64-26.3Q100.64-25.43 100.87-24.64 101.09-23.85 101.37-23.2L101.37-23.2 98.64-23.1 98.64-23.6Q97.87-24.2 97.28-25.28 96.69-26.35 96.69-27.78L96.69-27.78 96.69-27.9Q96.69-30.58 98.59-32.19 100.49-33.8 104.52-33.8ZM101.54 0L97.52 0 97.52-22.23 101.54-22.23 101.54 0ZM110.54-20.25L93.49-20.25 93.49-23.48 99.07-23.45 100.72-23.48 110.92-23.48 110.54-20.25ZM123.76 0.63L123.76 0.63Q118.51 0.63 115.8-2.21 113.09-5.05 113.09-10.38L113.09-10.38 113.09-14.1Q113.09-19.4 115.81-22.23 118.54-25.05 123.76-25.05L123.76-25.05Q129.01-25.05 131.73-22.23 134.44-19.4 134.44-14.1L134.44-14.1 134.44-10.38Q134.44-5.05 131.73-2.21 129.01 0.63 123.76 0.63ZM123.76-2.68L123.76-2.68Q127.01-2.68 128.7-4.6 130.39-6.53 130.39-10.15L130.39-10.15 130.39-14.33Q130.39-17.93 128.7-19.84 127.01-21.75 123.76-21.75L123.76-21.75Q120.54-21.75 118.84-19.84 117.14-17.93 117.14-14.33L117.14-14.33 117.14-10.15Q117.14-6.53 118.84-4.6 120.54-2.68 123.76-2.68ZM144.21 0L140.19 0 140.19-33.13 144.21-33.13 144.21 0ZM155.11 0L151.06 0 151.06-24.4 155.11-24.4 155.11 0ZM153.08-28.4L153.08-28.4Q151.83-28.4 151.22-29.06 150.61-29.73 150.61-30.88L150.61-30.88 150.61-31Q150.61-32.18 151.22-32.83 151.83-33.48 153.08-33.48L153.08-33.48Q154.33-33.48 154.96-32.83 155.58-32.18 155.58-31L155.58-31 155.58-30.88Q155.58-29.7 154.96-29.05 154.33-28.4 153.08-28.4ZM171.51 0.63L171.51 0.63Q166.26 0.63 163.54-2.21 160.83-5.05 160.83-10.38L160.83-10.38 160.83-14.1Q160.83-19.4 163.56-22.23 166.28-25.05 171.51-25.05L171.51-25.05Q176.76-25.05 179.47-22.23 182.18-19.4 182.18-14.1L182.18-14.1 182.18-10.38Q182.18-5.05 179.47-2.21 176.76 0.63 171.51 0.63ZM171.51-2.68L171.51-2.68Q174.76-2.68 176.44-4.6 178.13-6.53 178.13-10.15L178.13-10.15 178.13-14.33Q178.13-17.93 176.44-19.84 174.76-21.75 171.51-21.75L171.51-21.75Q168.28-21.75 166.58-19.84 164.88-17.93 164.88-14.33L164.88-14.33 164.88-10.15Q164.88-6.53 166.58-4.6 168.28-2.68 171.51-2.68ZM219.68 5.18L199.8 5.18 199.8 2 219.68 2 219.68 5.18ZM226.47 0L222.27 0 232.27-31.95 238.82-31.95 248.85 0 244.65 0 235.87-29.15 235.25-29.15 226.47 0ZM242.82-9.43L228.27-9.43 228.27-12.88 242.82-12.88 242.82-9.43ZM260.75 0.53L260.75 0.53Q256.35 0.53 254.05-2.2 251.75-4.93 251.75-10.15L251.75-10.15 251.75-14.18Q251.75-19.43 254.07-22.19 256.4-24.95 260.92-24.95L260.92-24.95Q263.17-24.95 264.82-24.19 266.47-23.43 267.5-22.05 268.52-20.68 268.87-18.8L268.87-18.8 270.2-18.8 269-15.08Q268.92-17.23 268.03-18.69 267.15-20.15 265.63-20.9 264.12-21.65 262.17-21.65L262.17-21.65Q259.07-21.65 257.43-19.85 255.8-18.05 255.8-14.55L255.8-14.55 255.8-9.9Q255.8-6.45 257.43-4.65 259.07-2.85 262.17-2.85L262.17-2.85Q264.02-2.85 265.45-3.56 266.87-4.28 267.81-5.54 268.75-6.8 269.1-8.4L269.1-8.4 270.1-5.5 268.9-5.5Q268.55-3.85 267.56-2.48 266.57-1.1 264.91-0.29 263.25 0.53 260.75 0.53ZM272.95 0L268.9 0 269.07-5.9 269-7.2 269-17.4 269.02-18.25 268.92-25.18 268.92-33.13 272.95-33.13 272.95 0ZM298.04 0L294.02 0 294.19-5.93 294.04-6.55 294.04-14.33 294.07-15.75Q294.07-18.73 292.56-20.15 291.04-21.58 287.77-21.58L287.77-21.58Q285.14-21.58 282.96-20.83 280.77-20.08 279.07-19.07L279.07-19.07 279.44-22.53Q280.39-23.1 281.71-23.66 283.02-24.23 284.71-24.6 286.39-24.98 288.42-24.98L288.42-24.98Q291.04-24.98 292.88-24.34 294.72-23.7 295.86-22.5 296.99-21.3 297.52-19.6 298.04-17.9 298.04-15.8L298.04-15.8 298.04 0ZM285.62 0.53L285.62 0.53Q281.99 0.53 280.06-1.24 278.12-3 278.12-6.28L278.12-6.28 278.12-7Q278.12-10.38 280.21-12.04 282.29-13.7 286.84-14.35L286.84-14.35 294.57-15.45 294.79-12.5 287.34-11.43Q284.54-11.03 283.34-10.06 282.14-9.1 282.14-7.23L282.14-7.23 282.14-6.83Q282.14-4.9 283.33-3.88 284.52-2.85 286.89-2.85L286.89-2.85Q288.99-2.85 290.49-3.58 291.99-4.3 292.92-5.53 293.84-6.75 294.17-8.25L294.17-8.25 294.79-5.5 294.02-5.5Q293.67-3.9 292.71-2.53 291.74-1.15 290.02-0.31 288.29 0.53 285.62 0.53ZM338.77 0L334.72 0 334.72-15.28Q334.72-17.2 334.23-18.61 333.74-20.03 332.63-20.8 331.52-21.58 329.64-21.58L329.64-21.58Q327.87-21.58 326.57-20.85 325.27-20.13 324.47-18.91 323.67-17.7 323.34-16.15L323.34-16.15 322.72-19.03 323.22-19.03Q323.62-20.6 324.57-21.95 325.52-23.3 327.14-24.13 328.77-24.95 331.17-24.95L331.17-24.95Q333.89-24.95 335.55-23.88 337.22-22.8 337.99-20.74 338.77-18.68 338.77-15.73L338.77-15.73 338.77 0ZM308.29 0L304.24 0 304.24-24.4 308.29-24.4 308.12-18.55 308.29-18.3 308.29 0ZM323.52 0L319.49 0 319.49-15.28Q319.49-17.2 319-18.61 318.52-20.03 317.42-20.8 316.32-21.58 314.44-21.58L314.44-21.58Q312.64-21.58 311.34-20.85 310.04-20.13 309.24-18.89 308.44-17.65 308.12-16.07L308.12-16.07 307.37-18.95 308.27-18.95Q308.64-20.6 309.57-21.96 310.49-23.33 312.08-24.14 313.67-24.95 315.94-24.95L315.94-24.95Q319.32-24.95 321.08-23.2 322.84-21.45 323.29-18.1L323.29-18.1Q323.42-17.6 323.47-17.01 323.52-16.43 323.52-15.85L323.52-15.85 323.52 0ZM363.01 5.18L343.14 5.18 343.14 2 363.01 2 363.01 5.18ZM369.81 0L365.61 0 375.61-31.95 382.16-31.95 392.19 0 387.99 0 379.21-29.15 378.59-29.15 369.81 0ZM386.16-9.43L371.61-9.43 371.61-12.88 386.16-12.88 386.16-9.43ZM400.86 0L396.83 0 396.83-33.13 400.86-33.13 400.86 0ZM417.83 0.55L417.83 0.55Q412.26 0.55 409.43-2.18 406.61-4.9 406.61-9.98L406.61-9.98 406.61-14.33Q406.61-19.48 409.23-22.26 411.86-25.05 416.91-25.05L416.91-25.05Q420.31-25.05 422.58-23.79 424.86-22.53 426.01-20.2 427.16-17.88 427.16-14.65L427.16-14.65 427.16-13.75Q427.16-12.95 427.09-12.15 427.03-11.35 426.93-10.58L426.93-10.58 423.21-10.58Q423.26-11.78 423.27-12.85 423.28-13.93 423.28-14.83L423.28-14.83Q423.28-17.05 422.57-18.59 421.86-20.13 420.44-20.94 419.03-21.75 416.91-21.75L416.91-21.75Q413.76-21.75 412.18-19.93 410.61-18.1 410.61-14.7L410.61-14.7 410.61-12.38 410.63-11.88 410.63-9.55Q410.63-8.03 411.08-6.8 411.53-5.58 412.49-4.69 413.46-3.8 414.94-3.34 416.43-2.88 418.48-2.88L418.48-2.88Q420.86-2.88 422.91-3.5 424.96-4.13 426.76-5.2L426.76-5.2 426.38-1.7Q424.76-0.68 422.61-0.06 420.46 0.55 417.83 0.55ZM426.08-10.58L408.73-10.58 408.73-13.63 426.08-13.63 426.08-10.58ZM442.75 0.55L442.75 0.55Q437.18 0.55 434.35-2.18 431.53-4.9 431.53-9.98L431.53-9.98 431.53-14.33Q431.53-19.48 434.15-22.26 436.78-25.05 441.83-25.05L441.83-25.05Q445.23-25.05 447.5-23.79 449.78-22.53 450.93-20.2 452.08-17.88 452.08-14.65L452.08-14.65 452.08-13.75Q452.08-12.95 452.02-12.15 451.95-11.35 451.85-10.58L451.85-10.58 448.13-10.58Q448.18-11.78 448.19-12.85 448.2-13.93 448.2-14.83L448.2-14.83Q448.2-17.05 447.49-18.59 446.78-20.13 445.37-20.94 443.95-21.75 441.83-21.75L441.83-21.75Q438.68-21.75 437.1-19.93 435.53-18.1 435.53-14.7L435.53-14.7 435.53-12.38 435.55-11.88 435.55-9.55Q435.55-8.03 436-6.8 436.45-5.58 437.42-4.69 438.38-3.8 439.87-3.34 441.35-2.88 443.4-2.88L443.4-2.88Q445.78-2.88 447.83-3.5 449.88-4.13 451.68-5.2L451.68-5.2 451.3-1.7Q449.68-0.68 447.53-0.06 445.38 0.55 442.75 0.55ZM451-10.58L433.65-10.58 433.65-13.63 451-13.63 451-10.58Z" opacity="1" transform="matrix(1,0,0,1,0,0)" fill="#0e2eff" class="wordmark-text-0" data-fill-palette-color="primary" id="text-0"></path></svg></g></svg></g></svg></g></svg></g><g><svg viewBox="0 0 79.96391088558961 90.01337405152225" height="90.01337405152225" width="79.96391088558961"><g><svg xmlns="http://www.w3.org/2000/svg" xmlns:xlink="http://www.w3.org/1999/xlink" version="1.1" x="0" y="0" viewBox="5.659 0.35045004439541455 88.15600000045639 99.23500382917229" enable-background="new 0 0 100 100" xml:space="preserve" height="90.01337405152225" width="79.96391088558961" class="icon-icon-0" data-fill-palette-color="accent" id="icon-0"><g fill="#35185a" data-fill-palette-color="accent"><path fill="#35185a" d="M93.786 22.714L93.774 22.638A3 3 0 0 0 93.701 22.302L93.686 22.242A3 3 0 0 0 93.515 21.804 3 3 0 0 0 93.429 21.626C93.41 21.594 93.388 21.564 93.369 21.532L93.311 21.439A3 3 0 0 0 93.102 21.154C93.096 21.146 93.091 21.138 93.084 21.132A3 3 0 0 0 92.81 20.847L92.754 20.799A3 3 0 0 0 92.483 20.589C92.464 20.577 92.448 20.564 92.43 20.552A3 3 0 0 0 92.087 20.356L92.066 20.344 51.07 0.653A3.09 3.09 0 0 0 48.403 0.653L7.406 20.343 7.383 20.356A3 3 0 0 0 7.045 20.549C7.024 20.562 7.004 20.577 6.984 20.591A3 3 0 0 0 6.723 20.794L6.66 20.849A3 3 0 0 0 6.389 21.128C6.379 21.139 6.371 21.152 6.362 21.164A3 3 0 0 0 6.101 21.538C6.083 21.568 6.062 21.596 6.045 21.626 6.014 21.681 5.989 21.738 5.962 21.794L5.92 21.879A3 3 0 0 0 5.788 22.238L5.77 22.308C5.74 22.416 5.717 22.524 5.7 22.633 5.695 22.661 5.69 22.688 5.687 22.716A3 3 0 0 0 5.659 23.113V73.77C5.659 74.889 6.266 75.92 7.246 76.464L48.242 99.2A3.09 3.09 0 0 0 51.231 99.2L92.228 76.466A3.08 3.08 0 0 0 93.815 73.772V23.117C93.815 22.982 93.805 22.848 93.786 22.714M49.737 92.981L11.821 71.956V28.354L31.933 39.507A3.081 3.081 0 1 0 34.923 34.117L15.449 23.317 49.737 6.85 84.026 23.318 64.553 34.116A3.08 3.08 0 0 0 63.352 38.305 3.076 3.076 0 0 0 67.54 39.506L87.652 28.354V71.956z" data-fill-palette-color="accent"></path><path fill="#35185a" d="M52.84 50.581A0.617 0.617 0 0 0 52.096 50.168 9.43 9.43 0 0 1 47.345 50.159 0.62 0.62 0 0 0 46.599 50.571L37.947 78.23A0.62 0.62 0 0 0 38.126 78.873L49.31 88.808A0.614 0.614 0 0 0 50.128 88.809L61.35 78.874A0.61 0.61 0 0 0 61.528 78.229z" data-fill-palette-color="accent"></path><path fill="#35185a" d="M41.634 38.822L46.706 47.518A0.62 0.62 0 0 0 47.081 47.804C47.251 47.848 47.421 47.898 47.592 47.946 48.263 48.139 48.958 48.338 49.737 48.338 50.488 48.338 51.156 48.145 51.802 47.958 51.985 47.906 52.168 47.852 52.352 47.805A0.62 0.62 0 0 0 52.737 47.504L57.508 38.777C57.673 38.429 57.823 37.632 57.332 36.853 56.44 35.441 53.886 34.725 49.737 34.725 45.547 34.725 42.917 35.449 41.917 36.875 41.276 37.792 41.554 38.63 41.587 38.724A1 1 0 0 0 41.634 38.822" data-fill-palette-color="accent"></path></g></svg></g></svg></g></svg></g><defs></defs></svg><rect width="395.5199999999999" height="73.61875791463052" fill="none" stroke="none" visibility="hidden"></rect></g></svg></g></svg>